<?xml version="1.0" encoding="UTF-8"?><svg xmlns="http://www.w3.org/2000/svg" width="58" height="80" viewBox="0 0 58 80"><defs><style>.cls-1 { fill: #3f4662; fill-rule: evenodd; }</style></defs><path id="API" class="cls-1" d="M298.92 143.5a.742.742 0 0 0-.08-.28 2.125 2.125 0 0 0-.42-.62.471.471 0 0 0-.1-.1l-11.82-11.82-.08-.08a3.477 3.477 0 0 0-.3-.26A1.95 1.95 0 0 0 285 130h-34.48a9.543 9.543 0 0 0-9.52 9.52v60.96a9.53 9.53 0 0 0 9.52 9.52h38.96a9.517 9.517 0 0 0 9.52-9.52V144a1.381 1.381 0 0 0-.08-.5zM287 136.82l5.16 5.18H287v-5.18zm8 63.66a5.531 5.531 0 0 1-5.52 5.52h-38.96a5.531 5.531 0 0 1-5.52-5.52v-60.96a5.531 5.531 0 0 1 5.52-5.52H283v10a2.006 2.006 0 0 0 2 2h10v54.48zM270.82 146h-1.64a11.894 11.894 0 0 0-11.88 11.88v11.56a5.531 5.531 0 0 0 5.52 5.52h9.36v9.06a1.9 1.9 0 0 0 .32 1.08l1.48 2.3-1.48 2.28a2 2 0 0 0 0 2.2l1.48 2.28-1.4 2.16a2.946 2.946 0 0 1-5.32 0l-1.42-2.16 1.5-2.28a2.078 2.078 0 0 0 0-2.2l-1.5-2.28 1.5-2.3a2.065 2.065 0 0 0 .32-1.08v-2.4a2 2 0 0 0-4 0v1.8l-1.88 2.9a1.965 1.965 0 0 0 0 2.18l1.48 2.28-1.48 2.28a1.965 1.965 0 0 0 0 2.18l2.2 3.38a.888.888 0 0 0 .16.22c1.8 2.1 3.76 3.16 5.78 3.16s3.96-1.06 5.76-3.16a.888.888 0 0 0 .16-.22l2.2-3.38a1.965 1.965 0 0 0 0-2.18l-1.48-2.28 1.48-2.28a1.965 1.965 0 0 0 0-2.18l-1.86-2.9v-8.46h1.02a5.527 5.527 0 0 0 5.5-5.52v-11.56A11.894 11.894 0 0 0 270.82 146zm7.88 23.44a1.515 1.515 0 0 1-1.5 1.52h-14.38a1.519 1.519 0 0 1-1.52-1.52v-11.56a7.9 7.9 0 0 1 7.88-7.88h1.64a7.9 7.9 0 0 1 7.88 7.88v11.56zm-8.787-15.85a5.006 5.006 0 0 0-5 5 2 2 0 1 0 4 0 1 1 0 0 1 2 0 2 2 0 1 0 4 0 5.006 5.006 0 0 0-5-5z" transform="translate(-241 -130)" fill="#3f4662" fill-rule="evenodd"/><metadata><rdf:RDF xmlns:rdf="http://www.w3.org/1999/02/22-rdf-syntax-ns#" xmlns:rdfs="http://www.w3.org/2000/01/rdf-schema#" xmlns:dc="http://purl.org/dc/elements/1.1/"><rdf:Description about="https://iconscout.com/legal#licenses" dc:title="api" dc:description="api" dc:publisher="Iconscout" dc:date="2017-09-26" dc:format="image/svg+xml" dc:language="en"><dc:creator><rdf:Bag><rdf:li>The Eyecons</rdf:li></rdf:Bag></dc:creator></rdf:Description></rdf:RDF></metadata></svg>